# File created by Blade
# Date/Time:  Tue Jan 27 18:55:59 2015
#---------------------------------------------------------
:version 1.10
:name HOM
:units
  mass 1.0
  length 1.000000
  angle deg
:documentation
     Acclaim Skeleton File
:root
   axis xyz
   order TX TY TZ RX RY RZ
   position 0.000000 0.000000 0.000000
   orientation 0 0 0
:bonedata
   begin
      id 1
      name Spine_dum
      direction 0.000000 1.000000 0.000000
      length 5.195262
      axis 0.0 0.0 0.0 xyz
   end
   begin
      id 2
      name LeftUpLeg_dum
      direction 1.000000 0.000000 0.000000
      length 3.351363
      axis 0.0 0.0 0.0 xyz
   end
   begin
      id 3
      name RightUpLeg_dum
      direction -1.000000 0.000000 0.000000
      length 3.351363
      axis 0.0 0.0 0.0 xyz
   end
   begin
      id 4
      name Spine
      direction 0.000000 1.000000 0.000000
      length 0.000000
      axis 0.0 0.0 0.0 xyz
      dof rx ry rz
   end
   begin
      id 5
      name Spine_dum1
      direction 0.000000 1.000000 0.000000
      length 15.653875
      axis 0.0 0.0 0.0 xyz
   end
   begin
      id 6
      name Spine_dum2
      direction 0.000000 1.000000 0.000000
      length 10.329768
      axis 0.0 0.0 0.0 xyz
   end
   begin
      id 7
      name Spine_dum3
      direction 0.000000 1.000000 0.000000
      length 10.329768
      axis 0.0 0.0 0.0 xyz
   end
   begin
      id 8
      name Head
      direction 0.000000 1.000000 0.000000
      length 4.527550
      axis 0.0 0.0 0.0 xyz
      dof rx ry rz
   end
   begin
      id 9
      name LeftShoulder
      direction 1.000000 0.000000 0.000000
      length 6.996006
      axis 0.0 0.0 -90.0 xyz
      dof rx ry rz
   end
   begin
      id 10
      name LeftArm
      direction 1.000000 0.000000 0.000000
      length 10.209302
      axis 0.0 0.0 -90.0 xyz
      dof rx ry rz
   end
   begin
      id 11
      name LeftForeArm
      direction 1.000000 0.000000 0.000000
      length 8.563163
      axis 0.0 0.0 -90.0 xyz
      dof ry rz rx
   end
   begin
      id 12
      name LeftHand
      direction 0.000000 0.000000 0.000000
      length 0.000000
      axis 0.0 0.0 -90.0 xyz
      dof rx ry rz
   end
   begin
      id 13
      name LeftHand_dum1
      direction 0.000000 0.000000 0.000000
      length 0.000000
      axis 0.0 0.0 -90.0 xyz
   end
   begin
      id 14
      name LeftHand_dum2
      direction 1.000000 0.000000 0.000000
      length 3.937000
      axis 0.0 0.0 -90.0 xyz
   end
   begin
      id 15
      name LeftHandThumb1
      direction 0.000000 0.000000 1.000000
      length 3.937000
      axis 0.0 0.0 -90.0 xyz
      dof rx rz ry
   end
   begin
      id 16
      name RightShoulder
      direction -1.000000 0.000000 0.000000
      length 6.996006
      axis 0.0 0.0 90.0 xyz
      dof rx ry rz
   end
   begin
      id 17
      name RightArm
      direction -1.000000 0.000000 0.000000
      length 10.209302
      axis 0.0 0.0 90.0 xyz
      dof rx ry rz
   end
   begin
      id 18
      name RightForeArm
      direction -1.000000 0.000000 0.000000
      length 8.563163
      axis 0.0 0.0 90.0 xyz
      dof ry rz rx
   end
   begin
      id 19
      name RightHand
      direction 0.000000 0.000000 0.000000
      length 0.000000
      axis 0.0 0.0 90.0 xyz
      dof rx ry rz
   end
   begin
      id 20
      name RightHand_dum1
      direction 0.000000 0.000000 0.000000
      length 0.000000
      axis 0.0 0.0 90.0 xyz
   end
   begin
      id 21
      name RightHand_dum2
      direction -1.000000 0.000000 0.000000
      length 3.937000
      axis 0.0 0.0 90.0 xyz
   end
   begin
      id 22
      name RightHandThumb1
      direction 0.000000 0.000000 1.000000
      length 3.937000
      axis 0.0 0.0 90.0 xyz
      dof rx rz ry
   end
   begin
      id 23
      name LeftUpLeg
      direction 0.000000 -1.000000 0.000000
      length 16.346831
      axis 0.0 0.0 0.0 xyz
      dof rx ry rz
   end
   begin
      id 24
      name LeftLeg
      direction 0.000000 -1.000000 0.000000
      length 13.959795
      axis 0.0 0.0 0.0 xyz
      dof rx ry rz
   end
   begin
      id 25
      name LeftFoot
      direction 0.000000 -0.258819 0.965926
      length 5.165550
      axis 15.0 0.0 0.0 xyz
      dof rx ry rz
   end
   begin
      id 26
      name LeftToeBase
      direction 0.000000 0.000000 1.000000
      length 2.952750
      axis 0.0 0.0 0.0 xyz
      dof rx ry rz
   end
   begin
      id 27
      name RightUpLeg
      direction 0.000000 -1.000000 0.000000
      length 16.346831
      axis 0.0 0.0 0.0 xyz
      dof rx ry rz
   end
   begin
      id 28
      name RightLeg
      direction 0.000000 -1.000000 0.000000
      length 13.959795
      axis 0.0 0.0 0.0 xyz
      dof rx ry rz
   end
   begin
      id 29
      name RightFoot
      direction 0.000000 -0.258819 0.965926
      length 5.165550
      axis 15.0 0.0 0.0 xyz
      dof rx ry rz
   end
   begin
      id 30
      name RightToeBase
      direction 0.000000 0.000000 1.000000
      length 2.952750
      axis 0.0 0.0 0.0 xyz
      dof rx ry rz
   end
:hierarchy
   begin
      root Spine_dum LeftUpLeg_dum RightUpLeg_dum
      Spine_dum Spine
      LeftUpLeg_dum LeftUpLeg
      RightUpLeg_dum RightUpLeg
      Spine Spine_dum1 Spine_dum2 Spine_dum3
      Spine_dum1 Head
      Spine_dum2 LeftShoulder
      Spine_dum3 RightShoulder
      LeftShoulder LeftArm
      LeftArm LeftForeArm
      LeftForeArm LeftHand
      LeftHand LeftHand_dum1 LeftHand_dum2
      LeftHand_dum1 LeftHandThumb1
      RightShoulder RightArm
      RightArm RightForeArm
      RightForeArm RightHand
      RightHand RightHand_dum1 RightHand_dum2
      RightHand_dum1 RightHandThumb1
      LeftUpLeg LeftLeg
      LeftLeg LeftFoot
      LeftFoot LeftToeBase
      RightUpLeg RightLeg
      RightLeg RightFoot
      RightFoot RightToeBase
   end

# File created by Blade
# Date/Time:  Tue Jan 27 18:55:50 2015
# Frame Rate: 120.000 fps
#------------------------------------------------------
:FULLY-SPECIFIED
:DEGREES
611
root -1.923906 31.941858 -4.773069 3.106338 42.552286 -3.339809
Spine -1.490194 -11.265918 -1.552284
Head 13.918565 7.318986 2.209387
LeftShoulder -14.746311 11.005475 14.514165
LeftArm 25.374624 -22.509289 -73.097931
LeftForeArm -10.172184 -0.000000 73.048525
LeftHand -5.736952 -0.000000 18.560080
LeftHandThumb1 -26.253704 0.000000 33.147579
RightShoulder -11.158444 -4.307170 -12.221810
RightArm 2.694971 -29.706446 88.162369
RightForeArm -25.363873 -0.000000 29.988864
RightHand -14.723788 -0.000000 10.589537
RightHandThumb1 -24.326973 -0.000000 -32.862282
LeftUpLeg -9.065434 -21.002812 -1.598759
LeftLeg 17.956743 -0.000000 -0.000000
LeftFoot -20.705136 10.780978 -17.637871
LeftToeBase 7.921907 -0.000000 -0.000000
RightUpLeg -41.333792 15.065521 -4.468241
RightLeg 86.049212 -0.000000 -0.000000
RightFoot -7.994594 -10.986304 9.127323
RightToeBase 3.359822 -0.000000 -0.000000
612
root -1.927685 31.942178 -4.782127 3.028794 42.649904 -3.263171
Spine -1.371858 -11.363394 -1.671526
Head 14.002236 7.370058 2.329551
LeftShoulder -14.775068 10.877819 14.603113
LeftArm 25.373874 -22.404318 -73.179160
LeftForeArm -9.448850 -0.000000 72.960531
LeftHand -5.960593 -0.000000 19.003706
LeftHandThumb1 -26.253704 0.000000 33.147579
RightShoulder -11.157209 -4.305376 -12.192462
RightArm 2.733725 -29.660381 88.137869
RightForeArm -25.408778 0.000000 29.968200
RightHand -14.720614 -0.000000 10.589979
RightHandThumb1 -24.326973 -0.000000 -32.862282
LeftUpLeg -8.956406 -20.805739 -1.677248
LeftLeg 17.911396 -0.000000 -0.000000
LeftFoot -20.686348 10.430407 -17.933566
LeftToeBase 8.333085 -0.000000 -0.000000
RightUpLeg -41.439300 14.774553 -4.324210
RightLeg 82.651864 -0.000000 -0.000000
RightFoot -8.361218 -10.766738 9.616833
RightToeBase 4.214353 -0.000000 -0.000000
613
root -1.930930 31.941973 -4.790369 2.940763 42.731956 -3.182812
Spine -1.228828 -11.406967 -1.813212
Head 14.055515 7.384655 2.467966
LeftShoulder -14.752887 10.801837 14.702851
LeftArm 25.395032 -22.346241 -73.270950
LeftForeArm -8.950211 -0.000000 72.898653
LeftHand -6.037296 0.000000 19.246591
LeftHandThumb1 -26.253704 0.000000 33.147579
RightShoulder -11.174449 -4.243450 -12.162934
RightArm 2.669807 -29.635931 88.146253
RightForeArm -25.386841 -0.000000 29.966095
RightHand -14.775701 -0.000000 10.578794
RightHandThumb1 -24.326973 -0.000000 -32.862282
LeftUpLeg -8.828830 -20.570209 -1.771134
LeftLeg 17.913962 -0.000000 -0.000000
LeftFoot -20.682492 10.005459 -18.262102
LeftToeBase 8.838284 -0.000000 -0.000000
RightUpLeg -41.494046 14.476666 -4.171992
RightLeg 79.141306 -0.000000 -0.000000
RightFoot -8.409145 -10.682567 9.785907
RightToeBase 3.540394 -0.000000 -0.000000
614
root -1.934192 31.941388 -4.799662 2.863363 42.813672 -3.093159
Spine -1.093224 -11.453716 -1.963373
Head 14.115311 7.400126 2.614280
LeftShoulder -14.778467 10.740207 14.760545
LeftArm 25.496342 -22.240112 -73.330630
LeftForeArm -8.474858 -0.000000 72.796538
LeftHand -6.127148 -0.000000 19.560677
LeftHandThumb1 -26.253704 0.000000 33.147579
RightShoulder -11.177231 -4.156263 -12.162958
RightArm 2.559267 -29.611122 88.207121
RightForeArm -25.344414 -0.000000 29.941258
RightHand -14.840633 -0.000000 10.670282
RightHandThumb1 -24.326973 -0.000000 -32.862282
LeftUpLeg -8.711899 -20.429979 -1.847516
LeftLeg 17.909874 -0.000000 -0.000000
LeftFoot -20.637887 9.499408 -18.449296
LeftToeBase 9.856674 -0.000000 -0.000000
RightUpLeg -41.527122 14.138133 -4.031217
RightLeg 75.557154 -0.000000 -0.000000
RightFoot -8.482148 -10.544184 9.806470
RightToeBase 4.047707 -0.000000 -0.000000
615
root -1.939403 31.940827 -4.809635 2.792100 42.892642 -3.027842
Spine -0.985435 -11.489134 -2.089382
Head 14.176579 7.419998 2.752168
LeftShoulder -14.772736 10.674640 14.841398
LeftArm 25.611939 -22.208811 -73.458570
LeftForeArm -8.151834 -0.000000 72.681329
LeftHand -6.229280 -0.000000 19.733158
LeftHandThumb1 -26.253704 0.000000 33.147579
RightShoulder -11.176828 -4.156611 -12.159128
RightArm 2.513671 -29.425087 88.259230
RightForeArm -25.638416 0.000000 29.900107
RightHand -14.693533 0.000000 10.895735
RightHandThumb1 -24.326973 -0.000000 -32.862282
LeftUpLeg -8.625752 -20.255189 -1.910712
LeftLeg 17.928642 -0.000000 -0.000000
LeftFoot -20.655216 9.110679 -18.721911
LeftToeBase 10.265076 -0.000000 -0.000000
RightUpLeg -41.549125 13.793092 -3.876262
RightLeg 71.851740 -0.000000 -0.000000
RightFoot -8.588304 -10.334641 9.598747
RightToeBase 3.895592 -0.000000 -0.000000
616
root -1.946809 31.938912 -4.820630 2.702526 42.965727 -2.973075
Spine -0.844094 -11.517126 -2.208118
Head 14.175055 7.448427 2.871610
LeftShoulder -14.711739 10.621217 14.936171
LeftArm 25.638432 -22.138589 -73.494633
LeftForeArm -7.762341 0.000000 72.604752
LeftHand -6.370069 0.000000 20.227062
LeftHandThumb1 -26.253704 0.000000 33.147579
RightShoulder -11.180824 -4.170447 -12.146955
RightArm 2.533359 -29.516904 88.257412
RightForeArm -25.338910 -0.000000 29.832670
RightHand -14.921750 -0.000000 10.349079
RightHandThumb1 -24.326973 -0.000000 -32.862282
LeftUpLeg -8.539525 -20.064073 -1.968139
LeftLeg 17.974958 -0.000000 -0.000000
LeftFoot -20.708569 8.623440 -19.243210
LeftToeBase 10.728686 -0.000000 -0.000000
RightUpLeg -41.528350 13.510527 -3.745248
RightLeg 68.049452 -0.000000 -0.000000
RightFoot -8.551865 -9.949341 9.858884
RightToeBase 3.467249 -0.000000 -0.000000
617
root -1.955532 31.936710 -4.829674 2.617190 43.019324 -2.927683
Spine -0.706541 -11.538323 -2.330596
Head 14.134947 7.463280 2.998901
LeftShoulder -14.693575 10.525525 15.044332
LeftArm 25.647297 -22.024486 -73.497452
LeftForeArm -7.442306 -0.000000 72.517745
LeftHand -6.493734 -0.000000 20.718774
LeftHandThumb1 -26.253704 0.000000 33.147579
RightShoulder -11.178924 -4.174150 -12.135073
RightArm 2.523530 -29.482238 88.285838
RightForeArm -25.354920 -0.000000 29.772469
RightHand -14.737214 0.000000 10.648429
RightHandThumb1 -24.326973 -0.000000 -32.862282
LeftUpLeg -8.450312 -19.878167 -2.008832
LeftLeg 17.985067 -0.000000 -0.000000
LeftFoot -20.772354 8.219086 -19.613473
LeftToeBase 11.235839 -0.000000 -0.000000
RightUpLeg -41.484473 13.230884 -3.590271
RightLeg 64.163514 -0.000000 -0.000000
RightFoot -8.464109 -9.634844 9.800901
RightToeBase 3.399757 -0.000000 -0.000000
618
root -1.964085 31.933641 -4.836548 2.536204 43.059836 -2.865092
Spine -0.564849 -11.524342 -2.484126
Head 14.107147 7.480477 3.132582
LeftShoulder -14.657729 10.532929 15.143300
LeftArm 25.763775 -21.935487 -73.528727
LeftForeArm -7.131893 0.000000 72.443501
LeftHand -6.626990 -0.000000 21.187885
LeftHandThumb1 -26.253704 0.000000 33.147579
RightShoulder -11.182553 -4.188484 -12.085591
RightArm 2.492695 -29.563948 88.256748
RightForeArm -25.281524 0.000000 29.768253
RightHand -14.688351 0.000000 10.635243
RightHandThumb1 -24.326973 -0.000000 -32.862282
LeftUpLeg -8.344061 -19.684901 -2.064448
LeftLeg 17.978340 -0.000000 -0.000000
LeftFoot -20.839778 7.791573 -19.994725
LeftToeBase 12.003223 -0.000000 -0.000000
RightUpLeg -41.402011 13.002902 -3.489494
RightLeg 60.220200 -0.000000 -0.000000
RightFoot -8.341875 -9.167750 10.136331
RightToeBase 3.384501 -0.000000 -0.000000
619
root -1.974878 31.929791 -4.845755 2.459591 43.072194 -2.792339
Spine -0.402528 -11.477680 -2.644273
Head 14.055275 7.543399 3.254221
LeftShoulder -14.587948 10.412754 15.271047
LeftArm 25.742194 -21.854023 -73.502850
LeftForeArm -6.806640 0.000000 72.380408
LeftHand -6.736539 0.000000 21.644438
LeftHandThumb1 -26.253704 0.000000 33.147579
RightShoulder -11.178345 -4.172147 -12.058863
RightArm 2.454895 -29.602520 88.270330
RightForeArm -25.245168 -0.000000 29.706697
RightHand -14.633440 -0.000000 10.771965
RightHandThumb1 -24.326973 -0.000000 -32.862282
LeftUpLeg -8.243904 -19.520340 -2.127851
LeftLeg 17.987317 -0.000000 -0.000000
LeftFoot -20.888079 7.450390 -20.338639
LeftToeBase 12.507501 -0.000000 -0.000000
RightUpLeg -41.285704 12.778505 -3.373969
RightLeg 56.157952 -0.000000 -0.000000
RightFoot -8.130961 -8.741254 10.304351
RightToeBase 3.375299 -0.000000 -0.000000
